<svg xmlns="http://www.w3.org/2000/svg" width="760" height="340" viewBox="0 0 760 340" font-family="-apple-system,Segoe UI,Helvetica,Arial,sans-serif">
<rect width="760" height="340" fill="#ffffff"/>
<text x="56" y="20" font-size="15" font-weight="600" fill="#111827">Houston event &amp; calendar coverage over time</text>
<line x1="56" y1="34.0" x2="700" y2="34.0" stroke="#e5e7eb" stroke-width="1"/>
<text x="48" y="38.0" font-size="11" text-anchor="end" fill="#2563eb">2000</text>
<text x="708" y="38.0" font-size="11" text-anchor="start" fill="#ea580c">50</text>
<line x1="56" y1="98.0" x2="700" y2="98.0" stroke="#e5e7eb" stroke-width="1"/>
<text x="48" y="102.0" font-size="11" text-anchor="end" fill="#2563eb">1500</text>
<text x="708" y="102.0" font-size="11" text-anchor="start" fill="#ea580c">38</text>
<line x1="56" y1="162.0" x2="700" y2="162.0" stroke="#e5e7eb" stroke-width="1"/>
<text x="48" y="166.0" font-size="11" text-anchor="end" fill="#2563eb">1000</text>
<text x="708" y="166.0" font-size="11" text-anchor="start" fill="#ea580c">25</text>
<line x1="56" y1="226.0" x2="700" y2="226.0" stroke="#e5e7eb" stroke-width="1"/>
<text x="48" y="230.0" font-size="11" text-anchor="end" fill="#2563eb">500</text>
<text x="708" y="230.0" font-size="11" text-anchor="start" fill="#ea580c">13</text>
<line x1="56" y1="290.0" x2="700" y2="290.0" stroke="#e5e7eb" stroke-width="1"/>
<text x="48" y="294.0" font-size="11" text-anchor="end" fill="#2563eb">0</text>
<text x="708" y="294.0" font-size="11" text-anchor="start" fill="#ea580c">0</text>
<line x1="56.0" y1="290" x2="56.0" y2="295" stroke="#9ca3af" stroke-width="1"/>
<text x="56.0" y="309" font-size="11" text-anchor="middle" fill="#6b7280">Jun 16</text>
<line x1="199.1" y1="290" x2="199.1" y2="295" stroke="#9ca3af" stroke-width="1"/>
<text x="199.1" y="309" font-size="11" text-anchor="middle" fill="#6b7280">Jun 18</text>
<line x1="342.2" y1="290" x2="342.2" y2="295" stroke="#9ca3af" stroke-width="1"/>
<text x="342.2" y="309" font-size="11" text-anchor="middle" fill="#6b7280">Jun 20</text>
<line x1="413.8" y1="290" x2="413.8" y2="295" stroke="#9ca3af" stroke-width="1"/>
<text x="413.8" y="309" font-size="11" text-anchor="middle" fill="#6b7280">Jun 21</text>
<line x1="556.9" y1="290" x2="556.9" y2="295" stroke="#9ca3af" stroke-width="1"/>
<text x="556.9" y="309" font-size="11" text-anchor="middle" fill="#6b7280">Jun 23</text>
<line x1="700.0" y1="290" x2="700.0" y2="295" stroke="#9ca3af" stroke-width="1"/>
<text x="700.0" y="309" font-size="11" text-anchor="middle" fill="#6b7280">Jun 25</text>
<text x="14" y="162" font-size="11" fill="#2563eb" text-anchor="middle" transform="rotate(-90 14 162)">Events</text>
<text x="748" y="162" font-size="11" fill="#ea580c" text-anchor="middle" transform="rotate(90 748 162)">Calendars</text>
<polyline fill="none" stroke="#2563eb" stroke-width="2" stroke-linejoin="round" stroke-linecap="round" points="56.0,103.2 127.6,115.0 199.1,98.3 270.7,96.7 342.2,90.3 413.8,91.0 485.3,99.7 556.9,93.1 628.4,93.5 700.0,93.6"/>
<polyline fill="none" stroke="#ea580c" stroke-width="2" stroke-linejoin="round" stroke-linecap="round" points="56.0,136.4 127.6,131.3 199.1,110.8 270.7,100.6 342.2,95.4 413.8,95.4 485.3,105.7 556.9,80.1 628.4,80.1 700.0,80.1"/>
<circle cx="56.0" cy="103.2" r="2.5" fill="#2563eb"/>
<circle cx="56.0" cy="136.4" r="2.5" fill="#ea580c"/>
<circle cx="127.6" cy="115.0" r="2.5" fill="#2563eb"/>
<circle cx="127.6" cy="131.3" r="2.5" fill="#ea580c"/>
<circle cx="199.1" cy="98.3" r="2.5" fill="#2563eb"/>
<circle cx="199.1" cy="110.8" r="2.5" fill="#ea580c"/>
<circle cx="270.7" cy="96.7" r="2.5" fill="#2563eb"/>
<circle cx="270.7" cy="100.6" r="2.5" fill="#ea580c"/>
<circle cx="342.2" cy="90.3" r="2.5" fill="#2563eb"/>
<circle cx="342.2" cy="95.4" r="2.5" fill="#ea580c"/>
<circle cx="413.8" cy="91.0" r="2.5" fill="#2563eb"/>
<circle cx="413.8" cy="95.4" r="2.5" fill="#ea580c"/>
<circle cx="485.3" cy="99.7" r="2.5" fill="#2563eb"/>
<circle cx="485.3" cy="105.7" r="2.5" fill="#ea580c"/>
<circle cx="556.9" cy="93.1" r="2.5" fill="#2563eb"/>
<circle cx="556.9" cy="80.1" r="2.5" fill="#ea580c"/>
<circle cx="628.4" cy="93.5" r="2.5" fill="#2563eb"/>
<circle cx="628.4" cy="80.1" r="2.5" fill="#ea580c"/>
<circle cx="700.0" cy="93.6" r="2.5" fill="#2563eb"/>
<circle cx="700.0" cy="80.1" r="2.5" fill="#ea580c"/>
<rect x="542" y="26" width="158" height="40" fill="#ffffff" fill-opacity="0.85" stroke="#e5e7eb" rx="4"/>
<line x1="550" y1="38" x2="568" y2="38" stroke="#2563eb" stroke-width="2"/>
<text x="574" y="42" font-size="11" fill="#374151">Events</text>
<line x1="550" y1="54" x2="568" y2="54" stroke="#ea580c" stroke-width="2"/>
<text x="574" y="58" font-size="11" fill="#374151">Calendars</text>
</svg>
