<svg xmlns="http://www.w3.org/2000/svg" width="760" height="340" viewBox="0 0 760 340" font-family="-apple-system,Segoe UI,Helvetica,Arial,sans-serif">
<rect width="760" height="340" fill="#ffffff"/>
<text x="56" y="20" font-size="15" font-weight="600" fill="#111827">Houston event &amp; calendar coverage over time</text>
<line x1="56" y1="34.0" x2="700" y2="34.0" stroke="#e5e7eb" stroke-width="1"/>
<text x="48" y="38.0" font-size="11" text-anchor="end" fill="#2563eb">2000</text>
<text x="708" y="38.0" font-size="11" text-anchor="start" fill="#ea580c">50</text>
<line x1="56" y1="98.0" x2="700" y2="98.0" stroke="#e5e7eb" stroke-width="1"/>
<text x="48" y="102.0" font-size="11" text-anchor="end" fill="#2563eb">1500</text>
<text x="708" y="102.0" font-size="11" text-anchor="start" fill="#ea580c">38</text>
<line x1="56" y1="162.0" x2="700" y2="162.0" stroke="#e5e7eb" stroke-width="1"/>
<text x="48" y="166.0" font-size="11" text-anchor="end" fill="#2563eb">1000</text>
<text x="708" y="166.0" font-size="11" text-anchor="start" fill="#ea580c">25</text>
<line x1="56" y1="226.0" x2="700" y2="226.0" stroke="#e5e7eb" stroke-width="1"/>
<text x="48" y="230.0" font-size="11" text-anchor="end" fill="#2563eb">500</text>
<text x="708" y="230.0" font-size="11" text-anchor="start" fill="#ea580c">13</text>
<line x1="56" y1="290.0" x2="700" y2="290.0" stroke="#e5e7eb" stroke-width="1"/>
<text x="48" y="294.0" font-size="11" text-anchor="end" fill="#2563eb">0</text>
<text x="708" y="294.0" font-size="11" text-anchor="start" fill="#ea580c">0</text>
<line x1="56.0" y1="290" x2="56.0" y2="295" stroke="#9ca3af" stroke-width="1"/>
<text x="56.0" y="309" font-size="11" text-anchor="middle" fill="#6b7280">Jun 16</text>
<line x1="184.8" y1="290" x2="184.8" y2="295" stroke="#9ca3af" stroke-width="1"/>
<text x="184.8" y="309" font-size="11" text-anchor="middle" fill="#6b7280">Jun 18</text>
<line x1="313.6" y1="290" x2="313.6" y2="295" stroke="#9ca3af" stroke-width="1"/>
<text x="313.6" y="309" font-size="11" text-anchor="middle" fill="#6b7280">Jun 20</text>
<line x1="442.4" y1="290" x2="442.4" y2="295" stroke="#9ca3af" stroke-width="1"/>
<text x="442.4" y="309" font-size="11" text-anchor="middle" fill="#6b7280">Jun 22</text>
<line x1="571.2" y1="290" x2="571.2" y2="295" stroke="#9ca3af" stroke-width="1"/>
<text x="571.2" y="309" font-size="11" text-anchor="middle" fill="#6b7280">Jun 24</text>
<line x1="700.0" y1="290" x2="700.0" y2="295" stroke="#9ca3af" stroke-width="1"/>
<text x="700.0" y="309" font-size="11" text-anchor="middle" fill="#6b7280">Jun 26</text>
<text x="14" y="162" font-size="11" fill="#2563eb" text-anchor="middle" transform="rotate(-90 14 162)">Events</text>
<text x="748" y="162" font-size="11" fill="#ea580c" text-anchor="middle" transform="rotate(90 748 162)">Calendars</text>
<polyline fill="none" stroke="#2563eb" stroke-width="2" stroke-linejoin="round" stroke-linecap="round" points="56.0,103.2 120.4,115.0 184.8,98.3 249.2,96.7 313.6,90.3 378.0,91.0 442.4,99.7 506.8,93.1 571.2,93.5 635.6,83.9 700.0,78.0"/>
<polyline fill="none" stroke="#ea580c" stroke-width="2" stroke-linejoin="round" stroke-linecap="round" points="56.0,136.4 120.4,131.3 184.8,110.8 249.2,100.6 313.6,95.4 378.0,95.4 442.4,105.7 506.8,80.1 571.2,80.1 635.6,75.0 700.0,80.1"/>
<circle cx="56.0" cy="103.2" r="2.5" fill="#2563eb"/>
<circle cx="56.0" cy="136.4" r="2.5" fill="#ea580c"/>
<circle cx="120.4" cy="115.0" r="2.5" fill="#2563eb"/>
<circle cx="120.4" cy="131.3" r="2.5" fill="#ea580c"/>
<circle cx="184.8" cy="98.3" r="2.5" fill="#2563eb"/>
<circle cx="184.8" cy="110.8" r="2.5" fill="#ea580c"/>
<circle cx="249.2" cy="96.7" r="2.5" fill="#2563eb"/>
<circle cx="249.2" cy="100.6" r="2.5" fill="#ea580c"/>
<circle cx="313.6" cy="90.3" r="2.5" fill="#2563eb"/>
<circle cx="313.6" cy="95.4" r="2.5" fill="#ea580c"/>
<circle cx="378.0" cy="91.0" r="2.5" fill="#2563eb"/>
<circle cx="378.0" cy="95.4" r="2.5" fill="#ea580c"/>
<circle cx="442.4" cy="99.7" r="2.5" fill="#2563eb"/>
<circle cx="442.4" cy="105.7" r="2.5" fill="#ea580c"/>
<circle cx="506.8" cy="93.1" r="2.5" fill="#2563eb"/>
<circle cx="506.8" cy="80.1" r="2.5" fill="#ea580c"/>
<circle cx="571.2" cy="93.5" r="2.5" fill="#2563eb"/>
<circle cx="571.2" cy="80.1" r="2.5" fill="#ea580c"/>
<circle cx="635.6" cy="83.9" r="2.5" fill="#2563eb"/>
<circle cx="635.6" cy="75.0" r="2.5" fill="#ea580c"/>
<circle cx="700.0" cy="78.0" r="2.5" fill="#2563eb"/>
<circle cx="700.0" cy="80.1" r="2.5" fill="#ea580c"/>
<rect x="542" y="26" width="158" height="40" fill="#ffffff" fill-opacity="0.85" stroke="#e5e7eb" rx="4"/>
<line x1="550" y1="38" x2="568" y2="38" stroke="#2563eb" stroke-width="2"/>
<text x="574" y="42" font-size="11" fill="#374151">Events</text>
<line x1="550" y1="54" x2="568" y2="54" stroke="#ea580c" stroke-width="2"/>
<text x="574" y="58" font-size="11" fill="#374151">Calendars</text>
</svg>
