<svg xmlns="http://www.w3.org/2000/svg" width="760" height="340" viewBox="0 0 760 340" font-family="-apple-system,Segoe UI,Helvetica,Arial,sans-serif">
<rect width="760" height="340" fill="#ffffff"/>
<text x="56" y="20" font-size="15" font-weight="600" fill="#111827">Houston event &amp; calendar coverage over time</text>
<line x1="56" y1="34.0" x2="700" y2="34.0" stroke="#e5e7eb" stroke-width="1"/>
<text x="48" y="38.0" font-size="11" text-anchor="end" fill="#2563eb">5000</text>
<text x="708" y="38.0" font-size="11" text-anchor="start" fill="#ea580c">100</text>
<line x1="56" y1="98.0" x2="700" y2="98.0" stroke="#e5e7eb" stroke-width="1"/>
<text x="48" y="102.0" font-size="11" text-anchor="end" fill="#2563eb">3750</text>
<text x="708" y="102.0" font-size="11" text-anchor="start" fill="#ea580c">75</text>
<line x1="56" y1="162.0" x2="700" y2="162.0" stroke="#e5e7eb" stroke-width="1"/>
<text x="48" y="166.0" font-size="11" text-anchor="end" fill="#2563eb">2500</text>
<text x="708" y="166.0" font-size="11" text-anchor="start" fill="#ea580c">50</text>
<line x1="56" y1="226.0" x2="700" y2="226.0" stroke="#e5e7eb" stroke-width="1"/>
<text x="48" y="230.0" font-size="11" text-anchor="end" fill="#2563eb">1250</text>
<text x="708" y="230.0" font-size="11" text-anchor="start" fill="#ea580c">25</text>
<line x1="56" y1="290.0" x2="700" y2="290.0" stroke="#e5e7eb" stroke-width="1"/>
<text x="48" y="294.0" font-size="11" text-anchor="end" fill="#2563eb">0</text>
<text x="708" y="294.0" font-size="11" text-anchor="start" fill="#ea580c">0</text>
<line x1="56.0" y1="290" x2="56.0" y2="295" stroke="#9ca3af" stroke-width="1"/>
<text x="56.0" y="309" font-size="11" text-anchor="middle" fill="#6b7280">Jun 16</text>
<line x1="149.3" y1="290" x2="149.3" y2="295" stroke="#9ca3af" stroke-width="1"/>
<text x="149.3" y="309" font-size="11" text-anchor="middle" fill="#6b7280">Jun 26</text>
<line x1="364.0" y1="290" x2="364.0" y2="295" stroke="#9ca3af" stroke-width="1"/>
<text x="364.0" y="309" font-size="11" text-anchor="middle" fill="#6b7280">Jul 19</text>
<line x1="513.3" y1="290" x2="513.3" y2="295" stroke="#9ca3af" stroke-width="1"/>
<text x="513.3" y="309" font-size="11" text-anchor="middle" fill="#6b7280">Aug 4</text>
<line x1="606.7" y1="290" x2="606.7" y2="295" stroke="#9ca3af" stroke-width="1"/>
<text x="606.7" y="309" font-size="11" text-anchor="middle" fill="#6b7280">Aug 14</text>
<line x1="700.0" y1="290" x2="700.0" y2="295" stroke="#9ca3af" stroke-width="1"/>
<text x="700.0" y="309" font-size="11" text-anchor="middle" fill="#6b7280">Aug 24</text>
<text x="14" y="162" font-size="11" fill="#2563eb" text-anchor="middle" transform="rotate(-90 14 162)">Events</text>
<text x="748" y="162" font-size="11" fill="#ea580c" text-anchor="middle" transform="rotate(90 748 162)">Calendars</text>
<polyline fill="none" stroke="#2563eb" stroke-width="2" stroke-linejoin="round" stroke-linecap="round" points="56.0,215.3 65.3,220.0 74.7,213.3 84.0,212.7 93.3,210.1 102.7,210.4 112.0,213.9 121.3,211.3 130.7,211.4 140.0,207.6 149.3,205.2 158.7,203.2 168.0,203.4 177.3,188.6 186.7,187.3 196.0,188.6 205.3,182.5 214.7,154.5 345.3,198.9 354.7,204.5 364.0,206.5 373.3,207.9 382.7,207.9 392.0,204.6 401.3,205.6 410.7,204.9 466.7,195.1 476.0,194.7 485.3,190.5 494.7,191.9 504.0,191.5 513.3,191.6 522.7,181.7 532.0,185.1 541.3,185.5 550.7,182.4 560.0,184.5 569.3,186.1 578.7,176.1 588.0,177.7 597.3,176.9 606.7,178.8 616.0,175.7 625.3,178.3 634.7,180.5 644.0,181.4 653.3,177.1 662.7,179.8 672.0,177.8 681.3,178.1 690.7,178.9 700.0,179.2"/>
<polyline fill="none" stroke="#ea580c" stroke-width="2" stroke-linejoin="round" stroke-linecap="round" points="56.0,213.2 65.3,210.6 74.7,200.4 84.0,195.3 93.3,192.7 102.7,192.7 112.0,197.8 121.3,185.0 130.7,185.0 140.0,182.5 149.3,185.0 158.7,177.4 168.0,177.4 177.3,172.2 186.7,167.1 196.0,177.4 205.3,156.9 214.7,144.1 345.3,141.5 354.7,141.5 364.0,136.4 373.3,131.3 382.7,131.3 392.0,126.2 401.3,131.3 410.7,121.0 466.7,115.9 476.0,113.4 485.3,113.4 494.7,108.2 504.0,103.1 513.3,103.1 522.7,90.3 532.0,90.3 541.3,95.4 550.7,92.9 560.0,98.0 569.3,95.4 578.7,92.9 588.0,92.9 597.3,95.4 606.7,98.0 616.0,95.4 625.3,95.4 634.7,100.6 644.0,95.4 653.3,95.4 662.7,95.4 672.0,95.4 681.3,95.4 690.7,95.4 700.0,95.4"/>
<circle cx="56.0" cy="215.3" r="2.5" fill="#2563eb"/>
<circle cx="56.0" cy="213.2" r="2.5" fill="#ea580c"/>
<circle cx="65.3" cy="220.0" r="2.5" fill="#2563eb"/>
<circle cx="65.3" cy="210.6" r="2.5" fill="#ea580c"/>
<circle cx="74.7" cy="213.3" r="2.5" fill="#2563eb"/>
<circle cx="74.7" cy="200.4" r="2.5" fill="#ea580c"/>
<circle cx="84.0" cy="212.7" r="2.5" fill="#2563eb"/>
<circle cx="84.0" cy="195.3" r="2.5" fill="#ea580c"/>
<circle cx="93.3" cy="210.1" r="2.5" fill="#2563eb"/>
<circle cx="93.3" cy="192.7" r="2.5" fill="#ea580c"/>
<circle cx="102.7" cy="210.4" r="2.5" fill="#2563eb"/>
<circle cx="102.7" cy="192.7" r="2.5" fill="#ea580c"/>
<circle cx="112.0" cy="213.9" r="2.5" fill="#2563eb"/>
<circle cx="112.0" cy="197.8" r="2.5" fill="#ea580c"/>
<circle cx="121.3" cy="211.3" r="2.5" fill="#2563eb"/>
<circle cx="121.3" cy="185.0" r="2.5" fill="#ea580c"/>
<circle cx="130.7" cy="211.4" r="2.5" fill="#2563eb"/>
<circle cx="130.7" cy="185.0" r="2.5" fill="#ea580c"/>
<circle cx="140.0" cy="207.6" r="2.5" fill="#2563eb"/>
<circle cx="140.0" cy="182.5" r="2.5" fill="#ea580c"/>
<circle cx="149.3" cy="205.2" r="2.5" fill="#2563eb"/>
<circle cx="149.3" cy="185.0" r="2.5" fill="#ea580c"/>
<circle cx="158.7" cy="203.2" r="2.5" fill="#2563eb"/>
<circle cx="158.7" cy="177.4" r="2.5" fill="#ea580c"/>
<circle cx="168.0" cy="203.4" r="2.5" fill="#2563eb"/>
<circle cx="168.0" cy="177.4" r="2.5" fill="#ea580c"/>
<circle cx="177.3" cy="188.6" r="2.5" fill="#2563eb"/>
<circle cx="177.3" cy="172.2" r="2.5" fill="#ea580c"/>
<circle cx="186.7" cy="187.3" r="2.5" fill="#2563eb"/>
<circle cx="186.7" cy="167.1" r="2.5" fill="#ea580c"/>
<circle cx="196.0" cy="188.6" r="2.5" fill="#2563eb"/>
<circle cx="196.0" cy="177.4" r="2.5" fill="#ea580c"/>
<circle cx="205.3" cy="182.5" r="2.5" fill="#2563eb"/>
<circle cx="205.3" cy="156.9" r="2.5" fill="#ea580c"/>
<circle cx="214.7" cy="154.5" r="2.5" fill="#2563eb"/>
<circle cx="214.7" cy="144.1" r="2.5" fill="#ea580c"/>
<circle cx="345.3" cy="198.9" r="2.5" fill="#2563eb"/>
<circle cx="345.3" cy="141.5" r="2.5" fill="#ea580c"/>
<circle cx="354.7" cy="204.5" r="2.5" fill="#2563eb"/>
<circle cx="354.7" cy="141.5" r="2.5" fill="#ea580c"/>
<circle cx="364.0" cy="206.5" r="2.5" fill="#2563eb"/>
<circle cx="364.0" cy="136.4" r="2.5" fill="#ea580c"/>
<circle cx="373.3" cy="207.9" r="2.5" fill="#2563eb"/>
<circle cx="373.3" cy="131.3" r="2.5" fill="#ea580c"/>
<circle cx="382.7" cy="207.9" r="2.5" fill="#2563eb"/>
<circle cx="382.7" cy="131.3" r="2.5" fill="#ea580c"/>
<circle cx="392.0" cy="204.6" r="2.5" fill="#2563eb"/>
<circle cx="392.0" cy="126.2" r="2.5" fill="#ea580c"/>
<circle cx="401.3" cy="205.6" r="2.5" fill="#2563eb"/>
<circle cx="401.3" cy="131.3" r="2.5" fill="#ea580c"/>
<circle cx="410.7" cy="204.9" r="2.5" fill="#2563eb"/>
<circle cx="410.7" cy="121.0" r="2.5" fill="#ea580c"/>
<circle cx="466.7" cy="195.1" r="2.5" fill="#2563eb"/>
<circle cx="466.7" cy="115.9" r="2.5" fill="#ea580c"/>
<circle cx="476.0" cy="194.7" r="2.5" fill="#2563eb"/>
<circle cx="476.0" cy="113.4" r="2.5" fill="#ea580c"/>
<circle cx="485.3" cy="190.5" r="2.5" fill="#2563eb"/>
<circle cx="485.3" cy="113.4" r="2.5" fill="#ea580c"/>
<circle cx="494.7" cy="191.9" r="2.5" fill="#2563eb"/>
<circle cx="494.7" cy="108.2" r="2.5" fill="#ea580c"/>
<circle cx="504.0" cy="191.5" r="2.5" fill="#2563eb"/>
<circle cx="504.0" cy="103.1" r="2.5" fill="#ea580c"/>
<circle cx="513.3" cy="191.6" r="2.5" fill="#2563eb"/>
<circle cx="513.3" cy="103.1" r="2.5" fill="#ea580c"/>
<circle cx="522.7" cy="181.7" r="2.5" fill="#2563eb"/>
<circle cx="522.7" cy="90.3" r="2.5" fill="#ea580c"/>
<circle cx="532.0" cy="185.1" r="2.5" fill="#2563eb"/>
<circle cx="532.0" cy="90.3" r="2.5" fill="#ea580c"/>
<circle cx="541.3" cy="185.5" r="2.5" fill="#2563eb"/>
<circle cx="541.3" cy="95.4" r="2.5" fill="#ea580c"/>
<circle cx="550.7" cy="182.4" r="2.5" fill="#2563eb"/>
<circle cx="550.7" cy="92.9" r="2.5" fill="#ea580c"/>
<circle cx="560.0" cy="184.5" r="2.5" fill="#2563eb"/>
<circle cx="560.0" cy="98.0" r="2.5" fill="#ea580c"/>
<circle cx="569.3" cy="186.1" r="2.5" fill="#2563eb"/>
<circle cx="569.3" cy="95.4" r="2.5" fill="#ea580c"/>
<circle cx="578.7" cy="176.1" r="2.5" fill="#2563eb"/>
<circle cx="578.7" cy="92.9" r="2.5" fill="#ea580c"/>
<circle cx="588.0" cy="177.7" r="2.5" fill="#2563eb"/>
<circle cx="588.0" cy="92.9" r="2.5" fill="#ea580c"/>
<circle cx="597.3" cy="176.9" r="2.5" fill="#2563eb"/>
<circle cx="597.3" cy="95.4" r="2.5" fill="#ea580c"/>
<circle cx="606.7" cy="178.8" r="2.5" fill="#2563eb"/>
<circle cx="606.7" cy="98.0" r="2.5" fill="#ea580c"/>
<circle cx="616.0" cy="175.7" r="2.5" fill="#2563eb"/>
<circle cx="616.0" cy="95.4" r="2.5" fill="#ea580c"/>
<circle cx="625.3" cy="178.3" r="2.5" fill="#2563eb"/>
<circle cx="625.3" cy="95.4" r="2.5" fill="#ea580c"/>
<circle cx="634.7" cy="180.5" r="2.5" fill="#2563eb"/>
<circle cx="634.7" cy="100.6" r="2.5" fill="#ea580c"/>
<circle cx="644.0" cy="181.4" r="2.5" fill="#2563eb"/>
<circle cx="644.0" cy="95.4" r="2.5" fill="#ea580c"/>
<circle cx="653.3" cy="177.1" r="2.5" fill="#2563eb"/>
<circle cx="653.3" cy="95.4" r="2.5" fill="#ea580c"/>
<circle cx="662.7" cy="179.8" r="2.5" fill="#2563eb"/>
<circle cx="662.7" cy="95.4" r="2.5" fill="#ea580c"/>
<circle cx="672.0" cy="177.8" r="2.5" fill="#2563eb"/>
<circle cx="672.0" cy="95.4" r="2.5" fill="#ea580c"/>
<circle cx="681.3" cy="178.1" r="2.5" fill="#2563eb"/>
<circle cx="681.3" cy="95.4" r="2.5" fill="#ea580c"/>
<circle cx="690.7" cy="178.9" r="2.5" fill="#2563eb"/>
<circle cx="690.7" cy="95.4" r="2.5" fill="#ea580c"/>
<circle cx="700.0" cy="179.2" r="2.5" fill="#2563eb"/>
<circle cx="700.0" cy="95.4" r="2.5" fill="#ea580c"/>
<rect x="542" y="26" width="158" height="40" fill="#ffffff" fill-opacity="0.85" stroke="#e5e7eb" rx="4"/>
<line x1="550" y1="38" x2="568" y2="38" stroke="#2563eb" stroke-width="2"/>
<text x="574" y="42" font-size="11" fill="#374151">Events</text>
<line x1="550" y1="54" x2="568" y2="54" stroke="#ea580c" stroke-width="2"/>
<text x="574" y="58" font-size="11" fill="#374151">Calendars</text>
</svg>
