<svg xmlns="http://www.w3.org/2000/svg" width="760" height="340" viewBox="0 0 760 340" font-family="-apple-system,Segoe UI,Helvetica,Arial,sans-serif">
<rect width="760" height="340" fill="#ffffff"/>
<text x="56" y="20" font-size="15" font-weight="600" fill="#111827">Houston event &amp; calendar coverage over time</text>
<line x1="56" y1="34.0" x2="700" y2="34.0" stroke="#e5e7eb" stroke-width="1"/>
<text x="48" y="38.0" font-size="11" text-anchor="end" fill="#2563eb">2500</text>
<text x="708" y="38.0" font-size="11" text-anchor="start" fill="#ea580c">50</text>
<line x1="56" y1="98.0" x2="700" y2="98.0" stroke="#e5e7eb" stroke-width="1"/>
<text x="48" y="102.0" font-size="11" text-anchor="end" fill="#2563eb">1875</text>
<text x="708" y="102.0" font-size="11" text-anchor="start" fill="#ea580c">38</text>
<line x1="56" y1="162.0" x2="700" y2="162.0" stroke="#e5e7eb" stroke-width="1"/>
<text x="48" y="166.0" font-size="11" text-anchor="end" fill="#2563eb">1250</text>
<text x="708" y="166.0" font-size="11" text-anchor="start" fill="#ea580c">25</text>
<line x1="56" y1="226.0" x2="700" y2="226.0" stroke="#e5e7eb" stroke-width="1"/>
<text x="48" y="230.0" font-size="11" text-anchor="end" fill="#2563eb">625</text>
<text x="708" y="230.0" font-size="11" text-anchor="start" fill="#ea580c">13</text>
<line x1="56" y1="290.0" x2="700" y2="290.0" stroke="#e5e7eb" stroke-width="1"/>
<text x="48" y="294.0" font-size="11" text-anchor="end" fill="#2563eb">0</text>
<text x="708" y="294.0" font-size="11" text-anchor="start" fill="#ea580c">0</text>
<line x1="56.0" y1="290" x2="56.0" y2="295" stroke="#9ca3af" stroke-width="1"/>
<text x="56.0" y="309" font-size="11" text-anchor="middle" fill="#6b7280">Jun 16</text>
<line x1="194.0" y1="290" x2="194.0" y2="295" stroke="#9ca3af" stroke-width="1"/>
<text x="194.0" y="309" font-size="11" text-anchor="middle" fill="#6b7280">Jun 19</text>
<line x1="332.0" y1="290" x2="332.0" y2="295" stroke="#9ca3af" stroke-width="1"/>
<text x="332.0" y="309" font-size="11" text-anchor="middle" fill="#6b7280">Jun 22</text>
<line x1="424.0" y1="290" x2="424.0" y2="295" stroke="#9ca3af" stroke-width="1"/>
<text x="424.0" y="309" font-size="11" text-anchor="middle" fill="#6b7280">Jun 24</text>
<line x1="562.0" y1="290" x2="562.0" y2="295" stroke="#9ca3af" stroke-width="1"/>
<text x="562.0" y="309" font-size="11" text-anchor="middle" fill="#6b7280">Jun 27</text>
<line x1="700.0" y1="290" x2="700.0" y2="295" stroke="#9ca3af" stroke-width="1"/>
<text x="700.0" y="309" font-size="11" text-anchor="middle" fill="#6b7280">Jun 30</text>
<text x="14" y="162" font-size="11" fill="#2563eb" text-anchor="middle" transform="rotate(-90 14 162)">Events</text>
<text x="748" y="162" font-size="11" fill="#ea580c" text-anchor="middle" transform="rotate(90 748 162)">Calendars</text>
<polyline fill="none" stroke="#2563eb" stroke-width="2" stroke-linejoin="round" stroke-linecap="round" points="56.0,140.6 102.0,150.0 148.0,136.6 194.0,135.4 240.0,130.3 286.0,130.8 332.0,137.7 378.0,132.5 424.0,132.8 470.0,125.1 516.0,120.4 562.0,116.3 608.0,116.7 654.0,87.1 700.0,84.5"/>
<polyline fill="none" stroke="#ea580c" stroke-width="2" stroke-linejoin="round" stroke-linecap="round" points="56.0,136.4 102.0,131.3 148.0,110.8 194.0,100.6 240.0,95.4 286.0,95.4 332.0,105.7 378.0,80.1 424.0,80.1 470.0,75.0 516.0,80.1 562.0,64.7 608.0,64.7 654.0,54.5 700.0,44.2"/>
<circle cx="56.0" cy="140.6" r="2.5" fill="#2563eb"/>
<circle cx="56.0" cy="136.4" r="2.5" fill="#ea580c"/>
<circle cx="102.0" cy="150.0" r="2.5" fill="#2563eb"/>
<circle cx="102.0" cy="131.3" r="2.5" fill="#ea580c"/>
<circle cx="148.0" cy="136.6" r="2.5" fill="#2563eb"/>
<circle cx="148.0" cy="110.8" r="2.5" fill="#ea580c"/>
<circle cx="194.0" cy="135.4" r="2.5" fill="#2563eb"/>
<circle cx="194.0" cy="100.6" r="2.5" fill="#ea580c"/>
<circle cx="240.0" cy="130.3" r="2.5" fill="#2563eb"/>
<circle cx="240.0" cy="95.4" r="2.5" fill="#ea580c"/>
<circle cx="286.0" cy="130.8" r="2.5" fill="#2563eb"/>
<circle cx="286.0" cy="95.4" r="2.5" fill="#ea580c"/>
<circle cx="332.0" cy="137.7" r="2.5" fill="#2563eb"/>
<circle cx="332.0" cy="105.7" r="2.5" fill="#ea580c"/>
<circle cx="378.0" cy="132.5" r="2.5" fill="#2563eb"/>
<circle cx="378.0" cy="80.1" r="2.5" fill="#ea580c"/>
<circle cx="424.0" cy="132.8" r="2.5" fill="#2563eb"/>
<circle cx="424.0" cy="80.1" r="2.5" fill="#ea580c"/>
<circle cx="470.0" cy="125.1" r="2.5" fill="#2563eb"/>
<circle cx="470.0" cy="75.0" r="2.5" fill="#ea580c"/>
<circle cx="516.0" cy="120.4" r="2.5" fill="#2563eb"/>
<circle cx="516.0" cy="80.1" r="2.5" fill="#ea580c"/>
<circle cx="562.0" cy="116.3" r="2.5" fill="#2563eb"/>
<circle cx="562.0" cy="64.7" r="2.5" fill="#ea580c"/>
<circle cx="608.0" cy="116.7" r="2.5" fill="#2563eb"/>
<circle cx="608.0" cy="64.7" r="2.5" fill="#ea580c"/>
<circle cx="654.0" cy="87.1" r="2.5" fill="#2563eb"/>
<circle cx="654.0" cy="54.5" r="2.5" fill="#ea580c"/>
<circle cx="700.0" cy="84.5" r="2.5" fill="#2563eb"/>
<circle cx="700.0" cy="44.2" r="2.5" fill="#ea580c"/>
<rect x="542" y="26" width="158" height="40" fill="#ffffff" fill-opacity="0.85" stroke="#e5e7eb" rx="4"/>
<line x1="550" y1="38" x2="568" y2="38" stroke="#2563eb" stroke-width="2"/>
<text x="574" y="42" font-size="11" fill="#374151">Events</text>
<line x1="550" y1="54" x2="568" y2="54" stroke="#ea580c" stroke-width="2"/>
<text x="574" y="58" font-size="11" fill="#374151">Calendars</text>
</svg>
