<svg xmlns="http://www.w3.org/2000/svg" width="760" height="340" viewBox="0 0 760 340" font-family="-apple-system,Segoe UI,Helvetica,Arial,sans-serif">
<rect width="760" height="340" fill="#ffffff"/>
<text x="56" y="20" font-size="15" font-weight="600" fill="#111827">Houston event &amp; calendar coverage over time</text>
<line x1="56" y1="34.0" x2="700" y2="34.0" stroke="#e5e7eb" stroke-width="1"/>
<text x="48" y="38.0" font-size="11" text-anchor="end" fill="#2563eb">2000</text>
<text x="708" y="38.0" font-size="11" text-anchor="start" fill="#ea580c">50</text>
<line x1="56" y1="98.0" x2="700" y2="98.0" stroke="#e5e7eb" stroke-width="1"/>
<text x="48" y="102.0" font-size="11" text-anchor="end" fill="#2563eb">1500</text>
<text x="708" y="102.0" font-size="11" text-anchor="start" fill="#ea580c">38</text>
<line x1="56" y1="162.0" x2="700" y2="162.0" stroke="#e5e7eb" stroke-width="1"/>
<text x="48" y="166.0" font-size="11" text-anchor="end" fill="#2563eb">1000</text>
<text x="708" y="166.0" font-size="11" text-anchor="start" fill="#ea580c">25</text>
<line x1="56" y1="226.0" x2="700" y2="226.0" stroke="#e5e7eb" stroke-width="1"/>
<text x="48" y="230.0" font-size="11" text-anchor="end" fill="#2563eb">500</text>
<text x="708" y="230.0" font-size="11" text-anchor="start" fill="#ea580c">13</text>
<line x1="56" y1="290.0" x2="700" y2="290.0" stroke="#e5e7eb" stroke-width="1"/>
<text x="48" y="294.0" font-size="11" text-anchor="end" fill="#2563eb">0</text>
<text x="708" y="294.0" font-size="11" text-anchor="start" fill="#ea580c">0</text>
<line x1="56.0" y1="290" x2="56.0" y2="295" stroke="#9ca3af" stroke-width="1"/>
<text x="56.0" y="309" font-size="11" text-anchor="middle" fill="#6b7280">Jun 16</text>
<line x1="163.3" y1="290" x2="163.3" y2="295" stroke="#9ca3af" stroke-width="1"/>
<text x="163.3" y="309" font-size="11" text-anchor="middle" fill="#6b7280">Jun 18</text>
<line x1="324.3" y1="290" x2="324.3" y2="295" stroke="#9ca3af" stroke-width="1"/>
<text x="324.3" y="309" font-size="11" text-anchor="middle" fill="#6b7280">Jun 21</text>
<line x1="431.7" y1="290" x2="431.7" y2="295" stroke="#9ca3af" stroke-width="1"/>
<text x="431.7" y="309" font-size="11" text-anchor="middle" fill="#6b7280">Jun 23</text>
<line x1="592.7" y1="290" x2="592.7" y2="295" stroke="#9ca3af" stroke-width="1"/>
<text x="592.7" y="309" font-size="11" text-anchor="middle" fill="#6b7280">Jun 26</text>
<line x1="700.0" y1="290" x2="700.0" y2="295" stroke="#9ca3af" stroke-width="1"/>
<text x="700.0" y="309" font-size="11" text-anchor="middle" fill="#6b7280">Jun 28</text>
<text x="14" y="162" font-size="11" fill="#2563eb" text-anchor="middle" transform="rotate(-90 14 162)">Events</text>
<text x="748" y="162" font-size="11" fill="#ea580c" text-anchor="middle" transform="rotate(90 748 162)">Calendars</text>
<polyline fill="none" stroke="#2563eb" stroke-width="2" stroke-linejoin="round" stroke-linecap="round" points="56.0,103.2 109.7,115.0 163.3,98.3 217.0,96.7 270.7,90.3 324.3,91.0 378.0,99.7 431.7,93.1 485.3,93.5 539.0,83.9 592.7,78.0 646.3,72.9 700.0,73.4"/>
<polyline fill="none" stroke="#ea580c" stroke-width="2" stroke-linejoin="round" stroke-linecap="round" points="56.0,136.4 109.7,131.3 163.3,110.8 217.0,100.6 270.7,95.4 324.3,95.4 378.0,105.7 431.7,80.1 485.3,80.1 539.0,75.0 592.7,80.1 646.3,64.7 700.0,64.7"/>
<circle cx="56.0" cy="103.2" r="2.5" fill="#2563eb"/>
<circle cx="56.0" cy="136.4" r="2.5" fill="#ea580c"/>
<circle cx="109.7" cy="115.0" r="2.5" fill="#2563eb"/>
<circle cx="109.7" cy="131.3" r="2.5" fill="#ea580c"/>
<circle cx="163.3" cy="98.3" r="2.5" fill="#2563eb"/>
<circle cx="163.3" cy="110.8" r="2.5" fill="#ea580c"/>
<circle cx="217.0" cy="96.7" r="2.5" fill="#2563eb"/>
<circle cx="217.0" cy="100.6" r="2.5" fill="#ea580c"/>
<circle cx="270.7" cy="90.3" r="2.5" fill="#2563eb"/>
<circle cx="270.7" cy="95.4" r="2.5" fill="#ea580c"/>
<circle cx="324.3" cy="91.0" r="2.5" fill="#2563eb"/>
<circle cx="324.3" cy="95.4" r="2.5" fill="#ea580c"/>
<circle cx="378.0" cy="99.7" r="2.5" fill="#2563eb"/>
<circle cx="378.0" cy="105.7" r="2.5" fill="#ea580c"/>
<circle cx="431.7" cy="93.1" r="2.5" fill="#2563eb"/>
<circle cx="431.7" cy="80.1" r="2.5" fill="#ea580c"/>
<circle cx="485.3" cy="93.5" r="2.5" fill="#2563eb"/>
<circle cx="485.3" cy="80.1" r="2.5" fill="#ea580c"/>
<circle cx="539.0" cy="83.9" r="2.5" fill="#2563eb"/>
<circle cx="539.0" cy="75.0" r="2.5" fill="#ea580c"/>
<circle cx="592.7" cy="78.0" r="2.5" fill="#2563eb"/>
<circle cx="592.7" cy="80.1" r="2.5" fill="#ea580c"/>
<circle cx="646.3" cy="72.9" r="2.5" fill="#2563eb"/>
<circle cx="646.3" cy="64.7" r="2.5" fill="#ea580c"/>
<circle cx="700.0" cy="73.4" r="2.5" fill="#2563eb"/>
<circle cx="700.0" cy="64.7" r="2.5" fill="#ea580c"/>
<rect x="542" y="26" width="158" height="40" fill="#ffffff" fill-opacity="0.85" stroke="#e5e7eb" rx="4"/>
<line x1="550" y1="38" x2="568" y2="38" stroke="#2563eb" stroke-width="2"/>
<text x="574" y="42" font-size="11" fill="#374151">Events</text>
<line x1="550" y1="54" x2="568" y2="54" stroke="#ea580c" stroke-width="2"/>
<text x="574" y="58" font-size="11" fill="#374151">Calendars</text>
</svg>
