<svg xmlns="http://www.w3.org/2000/svg" width="760" height="340" viewBox="0 0 760 340" font-family="-apple-system,Segoe UI,Helvetica,Arial,sans-serif">
<rect width="760" height="340" fill="#ffffff"/>
<text x="56" y="20" font-size="15" font-weight="600" fill="#111827">Houston event &amp; calendar coverage over time</text>
<line x1="56" y1="34.0" x2="700" y2="34.0" stroke="#e5e7eb" stroke-width="1"/>
<text x="48" y="38.0" font-size="11" text-anchor="end" fill="#2563eb">2500</text>
<text x="708" y="38.0" font-size="11" text-anchor="start" fill="#ea580c">50</text>
<line x1="56" y1="98.0" x2="700" y2="98.0" stroke="#e5e7eb" stroke-width="1"/>
<text x="48" y="102.0" font-size="11" text-anchor="end" fill="#2563eb">1875</text>
<text x="708" y="102.0" font-size="11" text-anchor="start" fill="#ea580c">38</text>
<line x1="56" y1="162.0" x2="700" y2="162.0" stroke="#e5e7eb" stroke-width="1"/>
<text x="48" y="166.0" font-size="11" text-anchor="end" fill="#2563eb">1250</text>
<text x="708" y="166.0" font-size="11" text-anchor="start" fill="#ea580c">25</text>
<line x1="56" y1="226.0" x2="700" y2="226.0" stroke="#e5e7eb" stroke-width="1"/>
<text x="48" y="230.0" font-size="11" text-anchor="end" fill="#2563eb">625</text>
<text x="708" y="230.0" font-size="11" text-anchor="start" fill="#ea580c">13</text>
<line x1="56" y1="290.0" x2="700" y2="290.0" stroke="#e5e7eb" stroke-width="1"/>
<text x="48" y="294.0" font-size="11" text-anchor="end" fill="#2563eb">0</text>
<text x="708" y="294.0" font-size="11" text-anchor="start" fill="#ea580c">0</text>
<line x1="56.0" y1="290" x2="56.0" y2="295" stroke="#9ca3af" stroke-width="1"/>
<text x="56.0" y="309" font-size="11" text-anchor="middle" fill="#6b7280">Jun 16</text>
<line x1="184.8" y1="290" x2="184.8" y2="295" stroke="#9ca3af" stroke-width="1"/>
<text x="184.8" y="309" font-size="11" text-anchor="middle" fill="#6b7280">Jun 19</text>
<line x1="313.6" y1="290" x2="313.6" y2="295" stroke="#9ca3af" stroke-width="1"/>
<text x="313.6" y="309" font-size="11" text-anchor="middle" fill="#6b7280">Jun 22</text>
<line x1="442.4" y1="290" x2="442.4" y2="295" stroke="#9ca3af" stroke-width="1"/>
<text x="442.4" y="309" font-size="11" text-anchor="middle" fill="#6b7280">Jun 25</text>
<line x1="571.2" y1="290" x2="571.2" y2="295" stroke="#9ca3af" stroke-width="1"/>
<text x="571.2" y="309" font-size="11" text-anchor="middle" fill="#6b7280">Jun 28</text>
<line x1="700.0" y1="290" x2="700.0" y2="295" stroke="#9ca3af" stroke-width="1"/>
<text x="700.0" y="309" font-size="11" text-anchor="middle" fill="#6b7280">Jul 1</text>
<text x="14" y="162" font-size="11" fill="#2563eb" text-anchor="middle" transform="rotate(-90 14 162)">Events</text>
<text x="748" y="162" font-size="11" fill="#ea580c" text-anchor="middle" transform="rotate(90 748 162)">Calendars</text>
<polyline fill="none" stroke="#2563eb" stroke-width="2" stroke-linejoin="round" stroke-linecap="round" points="56.0,140.6 98.9,150.0 141.9,136.6 184.8,135.4 227.7,130.3 270.7,130.8 313.6,137.7 356.5,132.5 399.5,132.8 442.4,125.1 485.3,120.4 528.3,116.3 571.2,116.7 614.1,87.1 657.1,84.7 700.0,87.1"/>
<polyline fill="none" stroke="#ea580c" stroke-width="2" stroke-linejoin="round" stroke-linecap="round" points="56.0,136.4 98.9,131.3 141.9,110.8 184.8,100.6 227.7,95.4 270.7,95.4 313.6,105.7 356.5,80.1 399.5,80.1 442.4,75.0 485.3,80.1 528.3,64.7 571.2,64.7 614.1,54.5 657.1,44.2 700.0,64.7"/>
<circle cx="56.0" cy="140.6" r="2.5" fill="#2563eb"/>
<circle cx="56.0" cy="136.4" r="2.5" fill="#ea580c"/>
<circle cx="98.9" cy="150.0" r="2.5" fill="#2563eb"/>
<circle cx="98.9" cy="131.3" r="2.5" fill="#ea580c"/>
<circle cx="141.9" cy="136.6" r="2.5" fill="#2563eb"/>
<circle cx="141.9" cy="110.8" r="2.5" fill="#ea580c"/>
<circle cx="184.8" cy="135.4" r="2.5" fill="#2563eb"/>
<circle cx="184.8" cy="100.6" r="2.5" fill="#ea580c"/>
<circle cx="227.7" cy="130.3" r="2.5" fill="#2563eb"/>
<circle cx="227.7" cy="95.4" r="2.5" fill="#ea580c"/>
<circle cx="270.7" cy="130.8" r="2.5" fill="#2563eb"/>
<circle cx="270.7" cy="95.4" r="2.5" fill="#ea580c"/>
<circle cx="313.6" cy="137.7" r="2.5" fill="#2563eb"/>
<circle cx="313.6" cy="105.7" r="2.5" fill="#ea580c"/>
<circle cx="356.5" cy="132.5" r="2.5" fill="#2563eb"/>
<circle cx="356.5" cy="80.1" r="2.5" fill="#ea580c"/>
<circle cx="399.5" cy="132.8" r="2.5" fill="#2563eb"/>
<circle cx="399.5" cy="80.1" r="2.5" fill="#ea580c"/>
<circle cx="442.4" cy="125.1" r="2.5" fill="#2563eb"/>
<circle cx="442.4" cy="75.0" r="2.5" fill="#ea580c"/>
<circle cx="485.3" cy="120.4" r="2.5" fill="#2563eb"/>
<circle cx="485.3" cy="80.1" r="2.5" fill="#ea580c"/>
<circle cx="528.3" cy="116.3" r="2.5" fill="#2563eb"/>
<circle cx="528.3" cy="64.7" r="2.5" fill="#ea580c"/>
<circle cx="571.2" cy="116.7" r="2.5" fill="#2563eb"/>
<circle cx="571.2" cy="64.7" r="2.5" fill="#ea580c"/>
<circle cx="614.1" cy="87.1" r="2.5" fill="#2563eb"/>
<circle cx="614.1" cy="54.5" r="2.5" fill="#ea580c"/>
<circle cx="657.1" cy="84.7" r="2.5" fill="#2563eb"/>
<circle cx="657.1" cy="44.2" r="2.5" fill="#ea580c"/>
<circle cx="700.0" cy="87.1" r="2.5" fill="#2563eb"/>
<circle cx="700.0" cy="64.7" r="2.5" fill="#ea580c"/>
<rect x="542" y="26" width="158" height="40" fill="#ffffff" fill-opacity="0.85" stroke="#e5e7eb" rx="4"/>
<line x1="550" y1="38" x2="568" y2="38" stroke="#2563eb" stroke-width="2"/>
<text x="574" y="42" font-size="11" fill="#374151">Events</text>
<line x1="550" y1="54" x2="568" y2="54" stroke="#ea580c" stroke-width="2"/>
<text x="574" y="58" font-size="11" fill="#374151">Calendars</text>
</svg>
